<svg xmlns="http://www.w3.org/2000/svg" width="430" height="371" viewBox="0 0 430 371">
    <g fill="none">
        <path fill="#000" d="M350.033 50.263c7.34-.356 14.281 4.75 21.063 13.622.087.113.065.276-.049.362-.113.087-.276.065-.362-.048-6.688-8.748-13.507-13.765-20.627-13.419-2.728.133-5.197 1.055-7.682 2.738l-.302.207c-1.589 1.106-2.918 2.283-5.29 4.598l-1.707 1.675c-2.466 2.406-3.82 3.59-5.539 4.757-2.494 1.693-4.978 2.632-7.717 2.78-6.87.372-14.295-4.253-22.686-16.017-.084-.117-.056-.278.06-.361.116-.083.278-.056.36.06 8.299 11.633 15.57 16.162 22.238 15.801 2.564-.138 4.9-.998 7.253-2.556l.201-.136c1.79-1.214 3.185-2.456 5.925-5.145l.794-.781c2.842-2.79 4.256-4.049 6.12-5.31 2.559-1.734 5.117-2.69 7.947-2.827zM73 323.779c6.498-.32 12.642 4.193 18.646 12.036.087.113.066.275-.048.362-.113.087-.276.066-.363-.048-5.91-7.72-11.93-12.143-18.21-11.833-2.335.115-4.453.886-6.579 2.29l-.193.13c-1.58 1.07-2.795 2.146-5.179 4.485l-1.03 1.014c-2.328 2.284-3.555 3.37-5.129 4.44-2.208 1.501-4.408 2.335-6.834 2.468-6.084.332-12.657-3.755-20.086-14.154-.083-.116-.056-.278.06-.361.117-.083.278-.056.361.06 7.336 10.267 13.755 14.26 19.637 13.938 2.325-.127 4.437-.928 6.57-2.38l.192-.13c1.516-1.053 2.762-2.177 5.165-4.543l.877-.864c2.311-2.263 3.525-3.33 5.105-4.402 2.265-1.536 4.53-2.385 7.038-2.508zM50.947 8.085c7.34-.357 14.28 4.75 21.062 13.621.087.114.066.276-.048.363-.114.087-.276.065-.363-.048C64.911 13.273 58.092 8.256 50.972 8.6c-2.729.133-5.197 1.056-7.683 2.739l-.3.206c-1.623 1.13-2.975 2.333-5.441 4.745l-1.256 1.235c-2.66 2.605-4.053 3.837-5.84 5.05-2.495 1.694-4.979 2.634-7.718 2.781C15.864 25.73 8.44 21.104.048 9.34c-.083-.117-.056-.278.06-.361.117-.083.279-.056.362.06C8.767 20.672 16.037 25.201 22.706 24.84c2.565-.138 4.9-.998 7.253-2.556l.202-.136c1.822-1.237 3.238-2.503 6.081-5.3l.947-.93c2.638-2.58 4.015-3.792 5.81-5.007 2.56-1.733 5.117-2.689 7.948-2.826z"/>
        <path fill="#EC8C92" d="M14.654 131.282L28.108 131.282 28.108 144.736 14.654 144.736z" transform="rotate(34.919 21.381 138.009)"/>
        <path fill="#000" d="M429.668 203.593l-8.076-7.296c-.106-.096-.27-.088-.366.018l-7.296 8.077c-.096.106-.087.27.019.365l8.076 7.296c.106.096.27.088.366-.018l7.296-8.077c.096-.106.087-.27-.019-.365zm-.54.21l-6.948 7.693-7.692-6.95 6.949-7.692 7.692 6.95zM209.087.167c.051-.134.2-.201.334-.15.123.047.19.176.16.3l-.01.034-2.982 7.81c-.05.134-.2.2-.334.15-.122-.047-.189-.177-.16-.3l.01-.034 2.982-7.81zM75.883 173.628c.141-.024.275.071.298.212.022.13-.056.252-.178.29l-.034.008-8.246 1.376c-.141.024-.275-.071-.298-.212-.022-.13.056-.252.178-.29l.035-.008 8.245-1.376zM400.28 30.322c.134-.048.283.022.33.156.045.124-.01.259-.124.317l-.032.014-7.872 2.815c-.134.048-.282-.022-.33-.157-.045-.123.01-.258.124-.316l.032-.015 7.872-2.814zM69.479 55.12c.112-.069.255-.042.336.056l.02.03 4.377 7.121c.075.122.037.282-.085.356-.111.069-.255.043-.335-.056l-.02-.029-4.378-7.122c-.075-.122-.037-.281.085-.356zM345.085 133.697c.105-.078.248-.065.338.024l.025.029 4.99 6.707c.084.115.06.277-.054.362-.104.078-.248.065-.337-.024l-.025-.029-4.99-6.707c-.085-.115-.061-.277.053-.362zM374.799 239.84c.036-.127.16-.204.285-.186l.035.008 8.035 2.307c.137.04.217.183.177.32-.036.126-.16.203-.286.185l-.034-.008-8.035-2.307c-.138-.039-.217-.182-.177-.32zM397.283 334.664c.124-.04.258.018.313.133l.013.033 2.605 7.944c.044.135-.03.282-.165.326-.125.041-.258-.018-.314-.132l-.013-.033-2.604-7.944c-.045-.136.029-.282.165-.327z"/>
        <circle cx="335.113" cy="316.858" r="8.464" fill="#4E61FF"/>
        <circle cx="404.093" cy="107.041" r="4.125" fill="#EC8C92"/>
        <path fill="#000" d="M46.048 261.465c-2.33 0-4.22 1.89-4.22 4.22 0 2.331 1.89 4.22 4.22 4.22 2.331 0 4.22-1.889 4.22-4.22 0-2.33-1.889-4.22-4.22-4.22zm0 .517c2.045 0 3.703 1.658 3.703 3.703s-1.658 3.703-3.703 3.703-3.703-1.658-3.703-3.703 1.658-3.703 3.703-3.703z"/>
        <g>
            <g transform="translate(118.061 28.989) translate(9.283)">
                <path fill="#FFF3A1" d="M127.564 16.968c-.467-1.677-2.205-2.657-3.882-2.191l-45.568 12.68-27.17 7.56L2.325 48.55c-.805.223-1.488.758-1.9 1.485-.41.728-.515 1.589-.29 2.394l17.227 61.905s1.166-6.67 4.13-6.595c2.966.076 3.196 7.227 3.196 7.227l-.217.296c5.47-7.264 12.337-15.57 14.743-14.818.504.149.948.453 1.27.87.097.142.171.3.22.465v-.01c2.202-8.51 6.374-18.691 14.96-21.766 3.069-1.097 3.67.321 6.513-1.242 6.912-3.8 6.74-15.41 19.95-24.278 16.39-11.006 27.498 3.264 27.498 3.264 2.284-.655 4.647-.99 7.023-.997 4.442 0 9.87 1.301 12.745 6.871 3.655 7.078 8.7 7.61 13.459 8.282l-15.288-54.934zM47.472 137.352c-.597.438-1.216.893-1.857 1.366.642-.47 1.261-.925 1.857-1.366zm-4.86 37.83l.253-.338h-.252v.338zm-1.666-28.716l.07-.21c.01-.031.02-.062.027-.094l-.031.093c-.02.07-.042.141-.066.21zm-.431-42.4c-.39 1.028-.884 2.013-1.474 2.94.672-.878 1.172-1.876 1.474-2.94zM27.432 123.62c4.99-6.62 6.73-8.762 9.007-12.234 1.539-2.343 1.494-2.506 1.812-3.116-1.174 1.853-2.613 3.968-4.094 6.077-2.498 3.558-5.103 7.088-6.725 9.272zm15.18 51.224v.338l.253-.338h-.252z"/>
                <path fill="#FFF3A1" d="M174.899 192.965c-.385.396-.869.682-1.401.828l-.856.238-3.14.873-2.92.815-.152.041-5.563 1.55-.894.248-2.92.811-6.612 1.84-2.92.814-5.283 1.47-1.325.37-2.046.569-.874.241-6.691 1.864-.677.19c-1.663-5.232-5.076-14.974-7.8-14.208-3.599 1.014-.217 12.872-.217 12.872l2.854 2.771c-1.229-1.163-2.458-2.326-3.69-3.489-.416-.393-.83-.787-1.248-1.18l-7.403-7.002-.417-.228c-.1-.055-.207-.114-.318-.172-.61-.328-1.367-.732-2.233-1.18-.003-.004-.01-.004-.013-.008-.184-.093-.38-.196-.598-.307l-.22-.117-.104-.052c-.172-.086-.351-.18-.541-.276-.138-.069-.283-.145-.428-.217-.346-.18-.718-.366-1.112-.563-.148-.076-.296-.148-.451-.224-.304-.155-.622-.31-.946-.47-.118-.058-.238-.117-.36-.175-.6-.297-1.231-.601-1.88-.905l-.39-.186c-1.07-.504-2.188-1.011-3.317-1.501-.213-.093-.427-.187-.641-.276-.18-.076-.356-.152-.532-.225-.856-.359-1.712-.704-2.55-1.014-.197-.076-.397-.149-.593-.221-.197-.073-.394-.142-.587-.21-.435-.156-.863-.3-1.284-.432-.141-.045-.28-.086-.417-.128-.107-.03-.218-.065-.325-.096-.32-.097-.639-.187-.945-.263-.1-.027-.204-.051-.304-.076-.094-.024-.183-.044-.273-.065-.09-.02-.18-.042-.269-.059-.107-.024-.21-.045-.314-.065-.17-.035-.335-.066-.497-.09-.107-.017-.218-.035-.321-.048-.02-.004-.04-.007-.059-.007-.283-.04-.567-.065-.852-.076-.3-.018-.602-.011-.901.02-.062.007-.124.014-.186.025-.076.01-.148.024-.221.041-.05.008-.098.02-.145.035-.046.01-.091.024-.135.041-.044.011-.086.026-.127.045-.028.01-.055.024-.083.034-.026.014-.053.027-.08.038-.053.024-.103.053-.151.087-.033.018-.064.039-.093.062-.03.019-.057.04-.083.062-.027.02-.053.044-.076.069-.05.045-.097.095-.139.148-.565.715-.317 1.826-.255 2.067l.007.032c.017.072.041.142.072.21.017.051.038.1.063.148.013.025.024.052.037.076.021.045.045.088.073.128.024.041.051.086.08.128.04.063.086.124.134.183.021.032.045.062.072.09.024.03.052.061.076.09.052.058.107.12.166.175.048.048.1.1.152.148.006.009.014.016.024.021.055.052.114.104.172.152.018.018.038.034.059.048.069.059.145.114.217.173.097.072.194.141.294.207.131.09.265.18.403.262.128.076.256.152.384.225.008.005.017.01.027.013.138.076.276.149.41.218.135.069.273.138.401.196.076.038.155.073.232.107.12.056.241.107.351.156.197.083.377.152.529.21.045.018.086.035.127.049.07.024.132.048.186.065l.107.042c.014.002.027.007.039.013l.055.018c.007.003.013.003.017.007l.014.003c.556.18 1.17.404 1.846.68.27.11.549.228.839.359 2.756 1.267 5.418 2.73 7.965 4.38-.763-.267-1.502-.505-2.216-.726-.48-.148-.949-.29-1.408-.42-.13-.039-.259-.073-.39-.111-.58-.166-1.139-.315-1.677-.449-.235-.058-.466-.117-.694-.172-.57-.138-1.115-.263-1.632-.376-.173-.038-.342-.073-.508-.107-.103-.021-.213-.045-.327-.07l-1.111-.227c-.542-.107-1.136-.225-1.76-.335-.908-.162-1.884-.32-2.872-.449-.265-.034-.528-.065-.793-.093-.37-.041-.739-.076-1.101-.103-.224-.018-.445-.031-.663-.042-.19-.01-.38-.017-.57-.024-.2-.007-.396-.01-.589-.01-.066 0-.131 0-.197.003-.08 0-.159 0-.238.004-.08.003-.155.003-.231.007-.176.007-.349.017-.521.03-.135.011-.263.021-.39.039-.094.01-.186.02-.276.034-.176.024-.345.055-.508.09-.1.017-.197.041-.29.065-.1.025-.196.052-.29.083-.079.024-.155.052-.227.08-.038.013-.073.027-.11.044-.056.021-.107.045-.16.07-.03.013-.065.03-.096.048-.113.054-.222.117-.324.19l-.073.051c-.032.022-.062.046-.09.073-.03.023-.059.049-.086.076h-.004c-.029.026-.056.053-.082.083-.017.01-.03.025-.042.041-.055.06-.106.123-.152.19-.041.062-.079.128-.114.193-.493.984.118 2.223.197 2.381.028.06.06.117.093.173l.104.166c.041.065.086.13.135.193.058.08.12.155.186.228l.01.013.1.104c.086.091.179.176.276.255.056.049.11.093.166.135.094.075.192.145.293.21.097.067.197.128.3.183.012.01.025.017.039.021.027.017.055.031.086.048l.03.018c.101.051.201.103.305.151.096.045.193.09.293.128.052.024.103.045.152.062.073.031.142.055.21.08.076.027.149.055.225.079.22.072.438.138.66.193.092.024.185.049.279.07.127.03.255.058.38.082.14.031.279.059.413.08.114.017.224.037.331.055l.077.01c.13.02.262.038.39.055.079.01.158.02.234.028.359.045.69.072.977.093l.269.02c.124.011.234.018.331.025 1.192.09 2.377.258 3.548.5.166.035.335.07.504.107.168.038.345.076.521.118l.435.103c.393.097.8.2 1.218.318.08.02.159.041.241.065.076.02.149.042.225.066.597.172 1.221.366 1.877.583l.339.114c.258.083.52.176.79.272.103.035.207.073.314.11.538.194 1.094.402 1.666.626h.007c.439.172.884.352 1.343.538.141.059.286.117.431.18.01.005.02.01.031.013.307.128.621.262.943.404.403.173.814.355 1.235.545.176.08.352.159.532.242.441.2.893.414 1.352.631.231.11.463.221.697.335.235.114.47.228.711.349.09.041.176.086.266.13.673.336 1.365.688 2.077 1.057-.265-.076-.53-.149-.793-.221-.304-.086-.604-.17-.9-.249-.208-.058-.415-.113-.619-.169l-.607-.165c-.224-.062-.449-.121-.666-.18-.286-.08-.57-.155-.849-.228-.162-.04-.32-.086-.483-.127-.67-.176-1.32-.345-1.95-.508l-.949-.241c-.158-.041-.31-.08-.466-.117-2.036-.508-3.875-.94-5.535-1.295-.345-.075-.687-.148-1.018-.217-1.05-.22-2.019-.407-2.92-.57-.3-.055-.59-.103-.877-.151-.09-.014-.179-.031-.269-.045-.22-.038-.434-.073-.645-.104-.352-.055-.69-.103-1.018-.148-.265-.038-.524-.073-.776-.104-.128-.013-.25-.027-.37-.041-.245-.028-.48-.052-.704-.072-.113-.014-.224-.025-.334-.032l-.3-.027c-.46-.035-.88-.059-1.267-.07l-.048-.003c-.08 0-.16-.003-.235-.003-.176-.003-.349-.003-.511 0-.076 0-.145 0-.218.003-.1 0-.196.004-.29.01-.2.011-.386.025-.562.042-.086.007-.169.017-.252.028-.062.007-.12.014-.179.024-.086.014-.173.028-.252.045-.059.007-.114.02-.166.03-.09.022-.176.042-.255.063-.019.004-.037.01-.055.017l-.104.031c-.058.018-.113.035-.165.056-.054.016-.106.037-.156.062-.048.02-.096.041-.14.065-.052.024-.101.05-.15.08-.044.027-.09.055-.13.086-.025.017-.049.034-.07.052-.022.015-.043.032-.061.051-.02.018-.042.035-.059.052-.02.017-.039.035-.055.055-.018.018-.031.038-.049.056-.06.07-.11.148-.152.23-.1.204-.635 1.412-.165 2.517.03.072.065.142.103.21.007.017.018.031.025.045.027.048.055.09.086.135 0 .003 0 .003.007.006.022.037.046.071.073.104.081.11.174.212.276.304.024.024.051.048.079.072.056.054.116.103.18.149.04.034.085.065.13.093.004.003.007.007.01.007.039.027.08.055.122.079.136.085.276.162.42.231.107.052.218.1.332.145.117.049.238.093.359.135.12.041.241.08.365.117.107.031.214.062.321.086.47.121.932.21 1.34.29l.12.024c.016.001.03.004.045.007.014.004.021.004.038.007.024.004.047.008.07.014.006.003.013.004.02.004.055.01.114.024.183.037.09.018.19.038.303.063.114.024.238.044.377.072l.404.08c.002.002.006.003.01.003.017.007.036.01.055.01.072.017.145.031.218.045l.251.052c.07.014.142.027.214.045.163.03.328.065.504.1.003.002.007.004.01.003l.857.176c.012.004.025.006.037.007.19.038.387.08.59.124l.073.014c.193.038.39.08.594.124l1.839.387c.821.173 1.705.362 2.636.562.094.018.187.038.283.06.232.05.47.1.708.154.252.056.51.114.773.17.783.172 1.598.352 2.433.538.849.19 1.72.386 2.616.59.048.01.1.024.152.035.138.03.273.062.407.096.134.035.265.062.397.093.352.083.687.166 1.004.249.18.045.356.09.524.134.553.142 1.029.273 1.415.38l.245.07c-.476-.008-.945-.008-1.404-.004-.3 0-.596.003-.89.01-.57.01-1.122.028-1.664.052-.19.01-.38.017-.562.027-.442.021-.87.049-1.29.08-.218.014-.432.03-.643.048-.476.038-.938.08-1.384.128-.587.058-1.149.124-1.684.193-.17.02-.335.041-.497.066-.7.096-1.353.195-1.957.296-.021.005-.043.009-.065.01-.028.004-.059.011-.1.018l-.166.031c-.061.01-.124.024-.196.038l-.235.045c-.114.024-.242.048-.38.076-.148.03-.307.065-.476.1-.521.114-1.139.255-1.794.428l-.656.176c-.006.001-.012.003-.017.007l-.328.093c-.221.062-.442.128-.666.2-.224.072-.446.141-.666.217l-.328.114c-.152.052-.304.107-.456.166-.144.055-.29.11-.431.169-.142.059-.283.117-.42.18-.094.04-.184.082-.274.124-.1.045-.197.09-.29.138-.32.158-.633.333-.935.524-.108.066-.213.137-.314.214-.1.073-.193.149-.283.225-.055.048-.11.096-.162.145-.045.041-.086.082-.128.127-.037.038-.075.08-.11.121-.042.048-.08.093-.114.142-.034.041-.065.085-.093.13-.03.045-.058.091-.083.139-.052.09-.095.187-.128.286-.113.308-.168.635-.162.963l-.593.166-6.706 1.867-.38.103-2.54.708-.831.23-5.78 1.61-2.92.81-6.61 1.84-2.918.814h-.004c-1.678.465-3.416-.517-3.882-2.195l-.8-2.878-.263-.939-1.664-5.98-.725-2.61-.262-.938-1.932-6.95-.456-1.643-.262-.939-2.392-8.59-.262-.938-2.388-8.593-.19-.677c1.802-2.757 3.782-5.611 5.95-8.513l.252-.339c2.36-3.15 4.945-6.35 7.754-9.528.5-.57 1.009-1.135 1.526-1.698 2.412-2.647 4.983-5.273 7.72-7.834.596-.559 1.197-1.114 1.808-1.663 2.988-2.695 6.163-5.311 9.532-7.796.03-.024.062-.048.093-.07 2.992-2.204 6.136-4.306 9.435-6.273 1.901-1.132 3.856-2.218 5.863-3.258.438-.224.877-.449 1.322-.67 3.868-1.935 7.851-3.632 11.927-5.083l.403-14.532c-2.743-1.428-5.177-3.384-7.16-5.756-3.125-3.822-5.001-8.51-5.377-13.432 6.27-4.02 9.538-8.31 11.35-11.426 2.927-5.022 4.162-10.564 7.517-11.896 1.097 1.695 2.3 3.32 3.599 4.866 4.183 4.946 9.301 9.017 15.06 11.982.827-.606 1.82-.942 2.844-.963.87.016 1.724.24 2.489.656 2.122 1.204 3.275 4.234 2.877 6.891-.52 3.483-3.692 6.268-6.753 6.364-.679.021-1.355-.084-1.995-.31-.303 3.543-.547 7.215-.731 11.015-.18 3.8-.283 7.482-.31 11.047 11.444-1.263 23.007-.945 34.365.946l.352 1.263 1.597 5.746.656 2.353.221.794 2.43 8.738.262.939.276.997 2.112 7.593.263.938.39 1.405 2.001 7.188.238.856.68 2.443 1.733 6.23.238.859 2.415 8.669.26.928 1.542 5.55c.304 1.086.001 2.252-.792 3.054z"/>
                <path fill="#000" d="M54.187 1.124c.026-.24.31-.345.484-.192l.026.026 23.637 26.303c.108.121.098.306-.023.415-.11.099-.275.099-.385.005l-.029-.027L54.702 1.84 51.236 35.05c-.017.16-.161.278-.322.26-.15-.015-.26-.139-.263-.284l.001-.037 3.535-33.865z"/>
                <circle cx="54.758" cy="1.858" r="1.73" fill="#000"/>
            </g>
            <g fill="#000">
                <path d="M132.14 76.382c-11.357-1.89-22.921-2.21-34.365-.946.031-3.561.135-7.244.31-11.047.18-3.796.423-7.468.732-11.016.64.227 1.316.332 1.994.311 3.061-.097 6.233-2.882 6.754-6.364.397-2.657-.756-5.687-2.878-6.891-.765-.416-1.618-.64-2.488-.656-1.025.02-2.018.357-2.844.963-5.76-2.965-10.877-7.037-15.06-11.982-1.3-1.546-2.502-3.17-3.6-4.866-3.354 1.332-4.59 6.874-7.516 11.896-1.812 3.116-5.08 7.405-11.35 11.426.375 4.922 2.252 9.61 5.376 13.431 1.984 2.373 4.417 4.33 7.16 5.757-.133 4.845-.268 9.69-.403 14.532-4.075 1.45-8.058 3.148-11.927 5.083-.445.221-.883.446-1.321.67-2.009 1.035-3.963 2.121-5.864 3.258-3.299 1.967-6.443 4.069-9.435 6.274-.031.02-.062.045-.093.069-3.368 2.485-6.543 5.1-9.532 7.796-.61.548-1.211 1.104-1.808 1.663-2.737 2.56-5.308 5.187-7.72 7.834-.518.562-1.026 1.128-1.526 1.698-2.809 3.178-5.394 6.377-7.754 9.528h-.252v.338c-2.167 2.903-4.148 5.757-5.95 8.514l-5.932-21.317c.483-.397.935-.804 1.363-1.211.142-.135.283-.273.418-.411.854-.858 1.646-1.775 2.371-2.744.138-.179.269-.362.4-.541.131-.18.255-.36.376-.535.122-.176.242-.352.356-.528.362-.546.693-1.077 1-1.58.187-.305.363-.598.532-.884.383-.642.737-1.28 1.063-1.916.107-.203.21-.407.31-.61.58-1.168 1.098-2.366 1.55-3.59.055-.148.11-.3.162-.448.048-.128.09-.256.134-.38.062-.18.121-.359.18-.535l.07-.21c.01-.03.019-.062.026-.093.015-.038.028-.08.038-.118.052-.162.1-.324.15-.483.137-.455.261-.904.375-1.342.041-.152.08-.304.114-.452.02-.07.038-.139.052-.208.034-.138.069-.272.096-.407.017-.059.03-.119.042-.18.038-.148.069-.293.097-.437.048-.211.089-.418.13-.625.052-.266.1-.525.146-.78 1.166-.839 2.28-1.646 3.333-2.412.642-.47 1.26-.925 1.857-1.367 1.038-.77 2.006-1.493 2.902-2.17.3-.228.59-.45.873-.663.252-.194.497-.38.732-.563 1.511-1.166 2.75-2.157 3.679-2.937 1.128-.945 3.244-2.795 2.93-4.748-.08-.54-.329-1.042-.711-1.432-.347-.269-.78-.402-1.219-.373-.113 0-.234.007-.358.017-.01 0-.02.004-.032.004-.134.013-.276.034-.424.062-.073.013-.148.027-.224.045-.077.017-.152.034-.232.055-.238.058-.483.13-.741.217-.77.265-1.524.578-2.254.939-.2.096-.407.197-.614.304-.004 0-.004.003-.004.003-.207.104-.417.214-.631.328-.214.114-.432.231-.65.355-.217.125-.44.245-.661.373-.17.097-.336.193-.505.293-.959.563-1.953 1.184-2.95 1.833-.235.152-.47.304-.704.462-.093.059-.183.121-.276.183-.141.093-.286.19-.428.287-.186.124-.37.248-.552.376-.17.11-.335.224-.5.341-.588.4-1.165.803-1.733 1.208-.228.163-.456.325-.68.487l-.666.48c-1.432 1.038-2.775 2.043-3.938 2.93l-.107-.104.539-.449c.086-.069.176-.145.276-.227.069-.056.145-.118.22-.183.863-.722 2.189-1.833 3.745-3.155.152-.127.304-.258.459-.39 1.995-1.7 4.31-3.699 6.488-5.639.113-.096.224-.196.334-.296.11-.1.221-.197.332-.297.134-.117.265-.238.396-.356.152-.138.304-.272.452-.41.47-.425.929-.846 1.37-1.253l.588-.549c.145-.134.286-.269.424-.4.107-.1.21-.197.31-.297.152-.145.301-.286.446-.428l.424-.414c.263-.259.577-.573.894-.928.063-.066.124-.135.183-.204l.114-.134c.076-.09.152-.183.225-.276.017-.021.034-.042.051-.066.045-.055.086-.11.128-.166.072-.096.142-.193.21-.293.049-.069.097-.141.142-.214l.058-.093c.045-.073.087-.145.128-.218.015-.021.028-.044.038-.069.048-.079.09-.165.131-.248.028-.052.052-.107.076-.162l.076-.176c.02-.049.041-.1.059-.152l.041-.114c.066-.19.113-.385.142-.583.012-.045.019-.092.02-.138.007-.045.011-.093.014-.138.004-.056.007-.107.007-.163.004-.152-.007-.304-.03-.455l-.011-.059c-.007-.05-.018-.1-.031-.148-.139-.553-.438-1.053-.86-1.436-.06-.052-.13-.094-.203-.124-.038-.02-.077-.036-.118-.048-.146-.044-.299-.065-.452-.062-.065 0-.138.003-.21.01-.049.003-.097.01-.145.017-.062.007-.124.017-.19.031-.052.01-.103.021-.159.035-.095.019-.19.043-.283.072h-.003c-.097.028-.2.062-.307.1l-.163.059c-.114.038-.23.086-.352.138-1.176.483-2.798 1.387-5.03 2.892-.308.207-.626.424-.957.656-.124.086-.249.176-.376.265-.128.09-.256.18-.387.277-.393.28-.803.575-1.228.886-.142.104-.283.211-.428.318l-.442.328c-.162.12-.328.245-.494.372-.175.132-.355.266-.538.408l-.431.328c-.052.041-.107.082-.163.124-.245.186-.493.38-.745.576-.338.262-.68.532-1.032.808-.238.186-.483.38-.731.576-.89.707-1.83 1.466-2.82 2.274-.152.121-.3.245-.456.373-1.628 1.334-3.4 2.816-5.314 4.445 8.642-8.09 15.216-14.501 18.425-17.821 1.018-1.053 3.044-3.2 2.46-4.987-.306-.713-.867-1.286-1.573-1.608C21.272 54.523 7.978 67.436.096 75.512c.034-.048.076-.1.12-.162.045-.062.097-.128.152-.2.111-.149.238-.321.383-.508.104-.138.207-.272.304-.407.17-.224.332-.442.493-.656 4.99-6.619 6.73-8.762 9.008-12.234 1.539-2.343 1.494-2.505 1.812-3.116.279-.438.544-.86.79-1.263.671-.879 1.171-1.876 1.473-2.94.304-.724.37-1.525.19-2.288v-.01c2.202-8.51 6.374-18.692 14.96-21.766 3.068-1.098 3.669.32 6.512-1.243 6.913-3.8 6.74-15.409 19.95-24.278 16.39-11.005 27.499 3.265 27.499 3.265 2.284-.655 4.647-.99 7.023-.998 4.441 0 9.87 1.302 12.744 6.872 3.655 7.078 8.7 7.61 13.46 8.282l15.171 54.52z" transform="translate(118.061 28.989) translate(35.165 50.04)"/>
                <path d="M73.66 65.935c.037.017.093.042.162.07 2.327.99 4.504.711 5.732.554 4.202-.538 8.51-3.451 9.028-3.806-1.09 1.888-2.569 3.522-4.338 4.797-4.319 3.091-8.965 2.945-10.473 2.834-.038-1.484-.075-2.967-.11-4.449zM100.576 39.768c.152-.055.32.024.375.177.055.152-.023.32-.176.375-.399.144-.778.336-1.13.57-.765.518-1.386 1.222-1.805 2.046-.073.145-.25.202-.394.129-.145-.074-.202-.25-.129-.395.464-.912 1.152-1.692 2.001-2.267.392-.262.815-.475 1.258-.635z" transform="translate(118.061 28.989) translate(35.165 50.04)"/>
            </g>
            <g fill="#000">
                <path d="M12.955 14.884l-.218.297c-.013.016-.026.033-.038.052-.647.721-1.227 1.5-1.733 2.327-.247.405-.433.754-1.132 1.945-.288.492-.529.898-.69 1.17l-1.147 2.091-.528-1.901-1.84-6.613s1.167-6.67 4.132-6.594c2.964.075 3.194 7.226 3.194 7.226z" transform="translate(118.061 28.989) translate(21.016 100.08)"/>
                <path d="M5.643 13.96l.037.004c.147.026.249.158.24.304l-.003.036-4.704 26.247L7.72 22.666c.05-.14.198-.218.34-.186l.036.01c.14.052.218.199.185.341l-.01.035-7.672 21.09c-.118.325-.59.21-.569-.114l.005-.038L5.339 14.2c.027-.147.159-.25.304-.242zM12.503 15.004l.668-.884C20.313 4.717 25.371-.605 27.563.08c.564.167 1.06.507 1.43.988.524.78.487 1.835.032 3.113-.32.895-.767 1.742-1.467 2.897l-.223.365c-1.142 1.85-2.674 4.14-4.488 6.732l-.183.26c-.242.345-.488.694-.74 1.048-1.473 2.08-3.046 4.248-4.655 6.426l-1.207 1.627c-.536.72-1.037 1.387-1.582 2.112-.098.13-.282.156-.411.058-.13-.097-.156-.281-.058-.41l.638-.85c.678-.903 1.335-1.785 2.148-2.885l.872-1.185c1.158-1.578 2.29-3.142 3.373-4.663l.653-.92.49-.695c2.009-2.863 3.68-5.367 4.872-7.324l.162-.271c1.432-2.414 1.985-4.068 1.299-5.092-.284-.367-.676-.636-1.126-.769-1.853-.58-7.263 5.21-14.42 14.715-.098.13-.282.156-.411.058-.13-.097-.156-.281-.058-.41zM36.669 27.591l.288-.174.33-.197c4.649-2.754 7.753-3.815 9.066-2.668.426.435.703.993.79 1.591.272 1.689-.802 3.132-2.907 4.916l-.123.104c-1.226 1.03-2.958 2.398-5.082 4.01l-.213.161c-2.23 1.688-4.853 3.619-7.762 5.712l-.24.172-.04.224c-.793 4.321-2.327 8.473-4.535 12.272l-.176.3-.272.453c-2.152 3.567-3.79 5.704-6.443 7.92l-.3.246-.209.168c-.125.103-.31.084-.412-.041-.103-.126-.084-.31.04-.413l.342-.276c2.798-2.303 4.447-4.492 6.75-8.357 2.324-3.918 3.916-8.226 4.698-12.715.013-.075.055-.143.118-.187l1.002-.722c2.64-1.906 5.03-3.668 7.085-5.224l.836-.635c1.765-1.349 3.228-2.507 4.312-3.414l.124-.104c2.021-1.694 3.058-3.05 2.828-4.48-.07-.48-.291-.924-.614-1.255-1.024-.894-4.133.206-8.692 2.942-3.514 2.11-7.614 5.001-11.912 8.28-.104.079-.246.079-.35.005l-.032-.028-.107-.103c-.117-.113-.12-.299-.007-.415.084-.087.21-.111.317-.07l.007.004.165-.126c4.07-3.092 7.955-5.828 11.33-7.876z" transform="translate(118.061 28.989) translate(21.016 100.08)"/>
                <path d="M19.321 30.397C34.91 17.135 42.031 12.72 43.866 14.27c.465.422.794.972.947 1.584.243 1.002-.056 2.06-.771 3.168-.5.775-1.08 1.425-1.972 2.307l-.43.42c-1.33 1.291-3.04 2.86-5.06 4.651l-.686.606-.913.802-1.042.908c-1.579 1.371-3.227 2.782-4.89 4.188l-1.334 1.124-1.74 1.457-.727.604c-.125.103-.31.086-.413-.039-.103-.125-.086-.31.039-.413l1.014-.844.95-.794 1.015-.853.263-.222c2.033-1.715 4.054-3.443 5.961-5.106l.825-.721.605-.531c2.545-2.244 4.638-4.162 6.15-5.655l.225-.224c1.833-1.85 2.705-3.276 2.362-4.693-.125-.497-.394-.945-.764-1.283-.574-.484-2.264.006-5.343 1.898l-.397.247c-3.977 2.502-9.888 7.054-18.038 13.988-.124.105-.309.09-.414-.033-.105-.124-.09-.309.033-.414z" transform="translate(118.061 28.989) translate(21.016 100.08)"/>
                <path d="M28.352 11.664c5.256-4.43 8.843-6.532 10.542-5.751l.051.025c.772.352 1.386.98 1.731 1.784.296.908.03 1.92-.66 3.016-.474.753-1.016 1.384-1.868 2.265l-.553.568c-3.652 3.737-10.232 10.101-17.883 17.264-.106.099-.266.105-.379.019l-.029-.026-.01-.01c-.115-.115-.115-.3 0-.415.019-.02.04-.035.062-.048l.02-.01 1.607-1.507c6.769-6.363 12.547-11.962 15.958-15.437l.785-.805.215-.225c1.753-1.85 2.58-3.235 2.187-4.442-.264-.612-.734-1.11-1.335-1.414l-.102-.049c-1.385-.7-5.045 1.468-10.287 5.922-4.074 3.461-8.806 8.02-13.949 13.289-.113.116-.299.118-.415.005-.116-.113-.118-.3-.005-.415l.642-.656c4.8-4.895 9.23-9.15 13.09-12.452l.585-.495zM7.995 22.766L.324 43.856 2.971 29.082 7.685 21.645z" transform="translate(118.061 28.989) translate(21.016 100.08)"/>
                <path d="M12.464 15.058c.096-.13.28-.158.41-.062.13.097.158.28.062.41-1.15 1.56-2.22 3.177-3.207 4.845-.533.903-1.025 1.787-1.473 2.65-.075.144-.252.2-.395.126-.144-.075-.2-.252-.126-.396.454-.873.95-1.766 1.49-2.678.995-1.686 2.077-3.32 3.239-4.895z" transform="translate(118.061 28.989) translate(21.016 100.08)"/>
            </g>
            <g fill="#000">
                <path d="M13.148 28.46c3.801-.631 7.65-.935 11.498-.906l.529.006c.162 0 .293.131.293.293 0 .15-.112.273-.257.291l-.044.002c-3.82-.058-7.637.213-11.408.81l-.613.1-.422.078-.356.07c-.244.048-.501.102-.769.16-1.113.242-2.228.526-3.279.85-2.883.889-4.779 1.929-5.143 3.02-.1.274-.15.565-.145.854.005.181.057.358.148.51.218.359.687.566 1.363.65.89.113 2.067.061 3.458-.128.863-.117 1.781-.284 2.725-.488.589-.127 1.158-.262 1.693-.397l.264-.068.36-.096.443-.122c3.8-.723 7.705-.679 11.488.13.088.018.162.076.202.157 2.072 4.23 5.197 7.855 9.075 10.527.91.622 1.858 1.186 2.84 1.689.529.271 1.058.521 1.58.748 1.098.476 2.228.879 3.38 1.205.156.044.246.206.202.362-.044.156-.206.246-.362.202-1.177-.333-2.331-.744-3.453-1.231-.534-.231-1.075-.487-1.615-.764-1.003-.514-1.973-1.091-2.904-1.728-3.887-2.678-7.033-6.293-9.15-10.508l-.056-.115-.171-.035c-3.506-.709-7.114-.75-10.61-.126l-.309.057-.212.06-.453.122-.127.033c-.617.161-1.286.322-1.981.472-.958.206-1.89.376-2.77.495-1.437.196-2.66.25-3.61.129-.835-.104-1.457-.378-1.793-.928-.144-.242-.223-.516-.231-.801-.006-.365.055-.727.177-1.06.448-1.341 2.451-2.44 5.524-3.388 1.068-.329 2.199-.617 3.327-.862.34-.074.662-.14.962-.199l.34-.065.372-.066zM7.696.764c.64-.815 1.975-1.001 3.929-.685C14 .466 17.27 1.601 21.226 3.32c2.824 1.225 5.587 2.558 8.66 4.127l1.685.866.007.003.026.014c.867.449 1.673.876 2.422 1.283l.552.3.057.041c1.913 1.748 3.825 3.522 5.736 5.325.919.867 1.837 1.74 2.755 2.62 1.288 1.232 2.573 2.477 3.858 3.734.744.73 1.484 1.46 2.223 2.188.115.114.116.3.002.415-.113.116-.299.117-.414.003-.738-.728-1.479-1.457-2.222-2.187-1.283-1.255-2.567-2.498-3.853-3.729-.917-.879-1.834-1.752-2.751-2.617-1.527-1.44-3.055-2.863-4.583-4.268l-1.12-1.027-.242-.132c-.733-.4-1.52-.82-2.368-1.262l-.302-.156-.015-.007-.021-.013-.814-.418c-3.423-1.763-6.433-3.23-9.512-4.564l-.496-.214c-3.691-1.581-6.748-2.625-8.965-2.986-1.761-.285-2.907-.125-3.374.47-.205.258-.3.612-.3 1.029 0 .248.03.483.075.686l.03.125c.288 1.089 1.75 2.12 3.729 2.959.216.09.423.172.617.244l.142.053c.14.05.24.085.299.104 1.417.501 2.807 1.077 4.162 1.727l.4.194c1.257.617 2.235 1.168 4.037 2.234.755.447 1.448.873 2.11 1.292.137.087.178.268.09.405-.086.137-.267.178-.404.09-.575-.364-1.173-.733-1.817-1.117l-.808-.478c-1.63-.958-2.553-1.463-3.861-2.09-1.337-.641-2.707-1.21-4.098-1.701l-.195-.067-.115-.042c-.242-.087-.506-.19-.787-.307C9.315 5.557 7.747 4.45 7.39 3.1l-.003-.016c-.069-.265-.118-.584-.117-.93.001-.536.128-1.015.426-1.391z" transform="translate(118.061 28.989) translate(87.966 185.321)"/>
                <path d="M1.973 17.424c1.568-.426 4.328-.337 8.554.36l.91.155.708.129c2.524.466 5.503 1.126 8.977 1.991l.716.18c2.291.58 4.811 1.254 7.575 2.027.156.044.247.206.203.362-.043.156-.205.247-.361.203l-.863-.24c-2.708-.751-5.174-1.404-7.412-1.963l-1.058-.26c-3.014-.736-5.632-1.307-7.884-1.724l-1.075-.192-.31-.052c-4.2-.706-6.938-.812-8.456-.429l-.078.021c-.293.07-.57.193-.818.361-.142.097-.258.228-.334.377-.099.201-.207.504-.271.845-.096.51-.07.997.107 1.416.278.583.762 1.043 1.362 1.291.776.33 1.588.57 2.427.718l.274.046 1.8.36 1.863.38c.541.112 1.103.228 1.683.35l1.427.3c2.58.544 5.332 1.144 8.147 1.779l1.459.33c1.337.307 2.515.61 3.687.936l.305.085.01.003c.116.029.204.127.22.247l.002.037c0 .15-.112.273-.257.291l-.04.002c-.027 0-.054-.003-.08-.01-1.164-.329-2.32-.632-3.614-.934l-.516-.119-1.303-.295c-2.598-.586-5.14-1.142-7.544-1.652l-2.023-.426c-1.159-.243-2.244-.466-3.245-.67l-2.126-.425c-.958-.147-1.894-.413-2.783-.792-.732-.302-1.325-.866-1.67-1.592-.233-.548-.264-1.15-.149-1.764.075-.398.201-.75.324-1 .123-.24.304-.446.528-.6.273-.184.574-.324.885-.412l.117-.031z" transform="translate(118.061 28.989) translate(87.966 185.321)"/>
                <path d="M2.266 8.299c1.516-.391 3.72-.361 6.478-.007.911.118 1.863.268 2.885.45l.264.048.653.122c.65.124 1.21.239 2.29.464 2.05.426 4.144.961 6.336 1.642.795.246 1.517.482 2.225.728 3.031 1.054 5.992 2.299 8.866 3.728.145.072.204.248.132.393-.073.145-.249.205-.394.132-2.85-1.418-5.789-2.653-8.797-3.699-.701-.244-1.417-.477-2.206-.721-2.018-.628-3.953-1.13-5.845-1.537l-.73-.153c-1.077-.224-1.6-.33-2.371-.473l-.526-.096c-1.013-.18-1.956-.33-2.857-.446-2.614-.336-4.712-.373-6.14-.036l-.121.03c-.092.022-.18.047-.292.083-.575.135-1.071.497-1.364.985-.184.365-.203.813-.093 1.304.073.325.177.59.288.811.27.522.666.967 1.157 1.298l.107.069c.61.402 1.373.711 2.264.94.641.163 1.323.28 2.056.363.21.024.42.045.639.063l.435.035.447.032c1.205.092 2.402.26 3.587.506 2.638.564 5.226 1.34 7.74 2.32l.424.168.02.007.619.246.726.293.018.009.02.01.295.122c2.335.97 4.856 2.151 7.577 3.555l.308.16.017.002.034.01.034.014c.134.067.194.222.146.36l-.015.033-.006.014c-.074.147-.253.205-.398.13-2.986-1.554-5.731-2.838-8.252-3.872l-.038-.019-.939-.378-.346-.137-.02-.007c-2.467-.99-5.008-1.778-7.599-2.36l-.486-.106c-1.03-.213-2.07-.368-3.117-.463l-.498-.04c-.154-.01-.433-.03-.556-.04-.309-.025-.594-.051-.882-.084-.758-.086-1.466-.207-2.135-.378-.887-.227-1.662-.532-2.301-.928l-.135-.086c-.624-.389-1.131-.939-1.47-1.595-.047-.094-.093-.193-.144-.324-.079-.198-.145-.408-.193-.625-.137-.612-.112-1.192.15-1.714.386-.643 1.015-1.103 1.72-1.267.1-.033.205-.063.309-.088zM51.941 20.406l-.162.045-2.081.58-2.92.81-2.853-2.77s-3.382-11.859.217-12.873c2.723-.766 6.136 8.976 7.799 14.208z" transform="translate(118.061 28.989) translate(87.966 185.321)"/>
                <path d="M51.852 20.126c.155-.049.32.036.369.19l.962 3.087.017.052.74 2.014 1.579 4.277c.056.152-.022.32-.174.377-.152.056-.32-.022-.377-.174l-1.578-4.277-.74-2.014c-.047-.125-.706-2.274-.989-3.164-.049-.154.037-.319.191-.368z" transform="translate(118.061 28.989) translate(87.966 185.321)"/>
                <path d="M54.92 28.971L38.555 47.47c1.11.482 2.251.889 3.416 1.218l13.273-18.84c.023-.324-.095-.644-.324-.876z" transform="translate(118.061 28.989) translate(87.966 185.321)"/>
            </g>
            <g transform="translate(118.061 28.989) translate(0 102.186)">
                <path fill="#000" d="M21.069 41.637c.08-.194.333-.243.48-.093 6.11 6.24 12.22 12.48 18.332 18.719.055.056.085.132.084.21l-.994 58.192c-.003.162-.136.29-.298.288-.162-.003-.291-.136-.288-.298l.991-58.07-17.935-18.313-.124.302C16.719 53.75 12.46 65.488 8.807 78.331l-.233.822C3.025 98.866.42 116.402 1.778 130.43l.117 1.204.059.61.088.861c.25 2.403.506 4.515.825 6.66.87 5.84 2.054 10.791 3.696 14.746 1.987 4.785 4.542 7.82 7.748 8.802l.142.042.04.014c1.449.652 3.146 1.065 5.601 1.065 3.031.005 6.036-.552 8.864-1.644 1.753-.675 4.19-2.017 7.113-3.924l.21-.137c.58-.38 1.18-.783 1.798-1.21l.31-.214c6.435-4.458 14.2-10.803 22.224-18.268.119-.11.304-.104.415.015.11.119.103.304-.015.415l-.742.687c-7.656 7.072-15.05 13.102-21.248 17.425l-.299.208c-.628.436-1.237.85-1.828 1.24l-.293.193c-3.048 2-5.593 3.408-7.434 4.118-2.895 1.118-5.972 1.688-9.075 1.683-2.469 0-4.216-.408-5.707-1.057l-.117-.051-.125-.037c-3.36-1.027-6-4.117-8.035-8.93l-.089-.21c-1.663-4.007-2.858-9-3.735-14.885-.357-2.407-.637-4.772-.916-7.55l-.176-1.814C-.171 116.37 2.442 98.77 8.009 78.994c3.79-13.465 8.243-25.71 13.06-37.357zM170.22 74.093c.235 0 .427.13.428.292.051 11.09.1 22.179.145 33.268 0 .162-.19.294-.426.294s-.427-.13-.428-.292c-.045-11.09-.094-22.179-.146-33.268 0-.162.19-.294.426-.294z"/>
                <path fill="#000" d="M78.85 83.756c.153.05.237.216.187.37-.835 2.56-1.671 5.122-2.509 7.682-1.035 3.175-2.073 6.351-3.113 9.528l-1.088 3.34-2.024 6.192-3.747 11.48-.636 1.949c-1.653 5.055-3.304 10.11-4.953 15.163l-31.97 97.893c-.05.154-.216.238-.37.187-.154-.05-.238-.216-.188-.37l31.97-97.892 2.475-7.58L66 122.164l4.678-14.33c.729-2.228 1.456-4.454 2.18-6.68 1.04-3.178 2.078-6.354 3.114-9.529.837-2.56 1.673-5.121 2.508-7.682.05-.154.216-.238.37-.188zm91.342 63.961c.162 0 .294.13.295.292.097 13.688.176 27.374.238 41.057.062 13.65.104 27.299.124 40.948 0 .162-.13.294-.293.294-.162 0-.293-.131-.293-.293-.021-13.649-.062-27.297-.125-40.946-.062-13.683-.141-27.369-.238-41.056 0-.162.13-.295.292-.296zM169.922 74.143c.134-.09.316-.056.407.078 6.636 9.785 13.27 19.571 19.903 29.359.09.134.055.316-.079.407-.134.09-.316.056-.407-.078-6.633-9.787-13.267-19.573-19.902-29.358-.091-.134-.056-.317.078-.408zM145.753 22.29c.131.095.16.278.065.41l-36.867 50.792c-.144.197-.451.144-.52-.09L96.92 33.95c-.045-.156.044-.319.2-.364.155-.046.318.044.363.2l11.345 38.877 36.516-50.308c.096-.131.279-.16.41-.065z"/>
                <path fill="#000" d="M109.318 14.051c.162.003.291.136.29.298l-.187 14.439c-.002.122-.08.231-.195.272C95 34.12 82.22 42.093 70.809 52.46c-9.425 8.564-17.601 18.465-24.618 29.21-1.689 2.584-3.288 5.186-4.802 7.8l-.338.584c-.61 1.062-1.175 2.07-1.678 2.988-.077.142-.256.194-.398.116-.142-.078-.194-.256-.116-.398l.426-.773c.489-.88 1.025-1.826 1.596-2.812 1.52-2.622 3.124-5.233 4.82-7.826 7.041-10.784 15.249-20.723 24.713-29.322 11.343-10.306 24.038-18.26 38.154-23.354l.269-.097.183-14.235c.003-.162.136-.292.298-.29zM133.97.934h.037c.162.015.281.157.267.319-.308 3.544-.552 7.212-.73 11.004-.163 3.507-.264 6.911-.303 10.212l-.005.464.12-.024c6.948-1.34 13.567-1.727 19.86-1.323l.429.028c5.04.353 9.523 1.174 13.738 2.339 15.932 4.408 29.258 14.222 39.566 28.029 8.627 11.554 14.749 25.501 17.592 38.825l.086.407c.052.243.103.49.154.741l.194 1.016.117.63.192 1.086c.86 4.911 1.206 7.734 1.248 11.053.06 4.684-.672 9.021-2.414 13.335-1.971 4.802-4.962 9.118-8.763 12.647l-.23.211c-1.055.98-2.17 1.916-3.345 2.81-2.263 1.724-4.73 3.279-7.373 4.678-3.833 2.03-7.91 3.671-12.16 5.006l-.595.185c-2.638.812-4.739 1.338-7.8 2.028-12.268 2.757-24.444 2.033-36.23-1.332-8.105-2.314-14.819-5.446-20.8-9.028-.146-.087-.187-.281-.089-.42l2.66-3.774 2.661-3.777c3.64-5.164 7.279-10.33 10.916-15.495.043-.062.108-.104.181-.119l1.968-.386c.605-.123 1.21-.242 1.813-.36 18.088-3.574 36.177-7.147 54.268-10.719.159-.031.313.072.344.231.032.16-.072.314-.23.345-18.091 3.572-36.18 7.145-54.27 10.72l-.904.177-2.758.544-5.39 7.653-8.119 11.524-2.478 3.515.06.035c5.746 3.41 12.18 6.4 19.882 8.641l.445.129c11.698 3.34 23.776 4.058 35.94 1.324l.663-.15c2.914-.666 4.979-1.2 7.686-2.05 4.22-1.325 8.262-2.954 12.061-4.965 2.616-1.385 5.056-2.923 7.293-4.626 1.031-.785 2.015-1.602 2.954-2.454l.35-.321c3.847-3.511 6.869-7.831 8.846-12.649 1.71-4.236 2.43-8.496 2.37-13.105l-.009-.524c-.073-3.178-.449-6.025-1.324-10.97l-.152-.843-.18-.967-.074-.373-.076-.37-.077-.366c-2.788-13.366-8.912-27.401-17.574-39.002-10.234-13.708-23.453-23.444-39.252-27.815-4.18-1.155-8.625-1.969-13.623-2.318-6.513-.456-13.38-.06-20.607 1.378-.183.036-.352-.105-.35-.29.03-3.566.134-7.252.31-11.059.18-3.8.424-7.475.733-11.027.013-.149.135-.262.28-.268z"/>
                <g fill="#000">
                    <path d="M51.534 11.847c.162 0 .293.224.293.5 0 .255-.112.465-.256.496l-.037.004h-1.519c-.162 0-.293-.224-.293-.5 0-.255.112-.465.256-.496l.037-.004h1.519zM124.257 11.702c.162-.008.298.165.304.386.006.204-.101.378-.245.41l-.037.006-3.807.198H91c-.162 0-.293-.18-.293-.4 0-.205.111-.374.256-.399L91 11.9h29.46l3.797-.198zM126.96 21.38c.162 0 .293.223.293.5 0 .254-.112.464-.256.495l-.037.004H84.084c-.162 0-.293-.224-.293-.5 0-.255.112-.465.256-.496l.037-.004h42.876zM4.64 21.379c.275 0 .497.224.497.5 0 .255-.19.465-.434.496l-.068.004c-.275 0-.498-.224-.498-.5 0-.255.19-.465.435-.496l.068-.004zM54.315 21.38c.162 0 .294.223.294.5 0 .254-.112.464-.257.495l-.037.004H34.717c-.162 0-.293-.224-.293-.5 0-.255.112-.465.257-.496l.036-.004h19.598zM129.61 30.907c.162 0 .294.224.294.5 0 .255-.112.465-.257.496l-.037.004H77.168c-.162 0-.293-.224-.293-.5 0-.255.112-.465.257-.496l.036-.004h52.442zM57.094 30.907c.162 0 .293.224.293.5 0 .255-.112.465-.256.496l-.037.004h-33.81c-.162 0-.293-.224-.293-.5 0-.255.111-.465.256-.496l.037-.004h33.81zM132.533 40.782c.005.242-.123.444-.285.45l-3.166.124H70.25c-.162 0-.294-.196-.294-.438 0-.223.112-.408.257-.435l.037-.003h58.827l3.156-.124c.162-.006.297.184.301.426zM59.876 40.439c.162 0 .293.224.293.5 0 .255-.112.465-.257.496l-.036.004H14.038c-.162 0-.293-.224-.293-.5 0-.255.112-.465.256-.496l.037-.004h45.838zM134.886 49.888c.162-.004.296.19.298.434.003.243-.127.443-.289.447l-3.26.078-1.634.04H63.329c-.162 0-.293-.196-.293-.44 0-.224.112-.41.257-.436l.036-.004h66.667c1.632-.041 3.262-.081 4.89-.119zM62.656 49.967c.162 0 .294.224.294.5 0 .255-.112.466-.257.496l-.037.004H6.284c-.162 0-.294-.224-.294-.5 0-.255.112-.465.257-.496l.037-.004h56.372zM137.564 59.485c.162 0 .294.22.294.49 0 .251-.111.458-.256.489l-.037.004-7.565.017h-.49c-.162 0-.293-.22-.293-.491 0-.25.112-.457.256-.488l.037-.003h.49l7.564-.018zM124.247 59.496c.162 0 .294.223.294.5 0 .255-.112.465-.257.496l-.037.004H.272c-.162 0-.293-.224-.293-.5 0-.255.112-.466.256-.496l.037-.004h123.975zM44.442 69.027c.162 0 .293.224.293.5 0 .255-.112.466-.256.497l-.037.003H2.922c-.162 0-.293-.223-.293-.5 0-.254.112-.465.257-.496l.036-.004h41.52zM53.68 69.027c.829 0 1.661.005 2.5.014 1.123.013 2.238.033 3.345.062.162.004.29.214.288.47-.003.255-.136.459-.298.454-1.105-.028-2.218-.048-3.34-.061-.557-.006-1.113-.01-1.666-.012l-.829-.002H50.81c-.162 0-.293-.207-.293-.462 0-.236.112-.43.256-.459l.037-.004h2.871zM124.273 68.98c.162-.003.295.202.297.457.002.236-.109.433-.253.464l-.037.005-3.808.074H73.56c-.162 0-.294-.207-.294-.463 0-.235.112-.43.257-.459l.037-.003h46.91l3.804-.075zM53.68 78.556l4.07.008 4.068.015c.162 0 .293.218.293.488 0 .25-.112.455-.256.485l-.037.004-4.07-.015-4.068-.008h-.876c-.162 0-.294-.219-.294-.489 0-.249.112-.454.257-.484l.037-.004h.877zM43.237 78.556c.162 0 .294.224.294.5 0 .255-.112.465-.257.496l-.037.004H5.577c-.163 0-.294-.224-.294-.5 0-.255.112-.465.256-.496l.037-.004h37.661zM102.285 78.556c.162 0 .293.224.293.5 0 .255-.112.465-.256.496l-.037.004H85.026c-.162 0-.293-.224-.293-.5 0-.255.112-.465.256-.496l.037-.004h17.259zM65.697 88.338c.002.222-.128.404-.29.407l-2.277.038-4.725.08-4.725.08H8.227c-.162 0-.294-.18-.294-.401 0-.204.112-.373.257-.398l.037-.003h45.45l11.722-.198c.162-.003.296.174.298.395zM33.792 97.616c.162 0 .293.224.293.5 0 .255-.112.465-.256.496l-.037.004H10.877c-.162 0-.293-.224-.293-.5 0-.255.112-.465.256-.496l.037-.004h22.915z" transform="translate(45.864 22.396)"/>
                    <path d="M6.238 50.306c.255 0 .466.111.496.256l.004.037v29.893c0 .162-.223.293-.5.293-.255 0-.465-.112-.496-.256l-.004-.037V50.599c0-.162.224-.293.5-.293zM15.77 38.741c.256 0 .466.112.497.257l.004.036v63.948c0 .162-.224.294-.5.294-.255 0-.465-.112-.496-.257l-.004-.037V39.034c0-.162.224-.293.5-.293zM25.299 29.244c.254 0 .465.112.496.256l.004.037v70.791c0 .162-.224.294-.5.294-.255 0-.466-.112-.497-.257l-.003-.037v-70.79c0-.163.223-.294.5-.294zM34.83 21.448c.255 0 .466.112.496.257l.004.037v75.936c0 .162-.224.294-.5.294-.255 0-.465-.112-.496-.257l-.004-.037V21.742c0-.162.224-.294.5-.294zM44.288 82.997c.219 0 .4.112.426.257l.003.037v5.085c.049 2.208.096 4.415.142 6.62.003.162-.187.295-.424.297-.237.003-.432-.127-.435-.289l-.093-4.413-.048-2.21v-5.09c0-.162.192-.294.429-.294zM44.359 15.105c.255 0 .465.112.496.256l.004.037v54.006c0 .162-.224.293-.5.293-.255 0-.466-.112-.496-.257l-.004-.036V15.398c0-.162.223-.293.5-.293zM44.359 74.107c.255 0 .465.112.496.257l.004.037v4.044c0 .162-.224.294-.5.294-.255 0-.466-.112-.496-.257l-.004-.037v-4.044c0-.162.223-.294.5-.294zM53.887 77.738c.255 0 .465.112.496.256l.004.037v.97c0 .162-.224.293-.5.293-.255 0-.465-.112-.496-.256L53.387 79v-.97c0-.162.224-.293.5-.293zM53.887 85.168c.255 0 .465.112.496.256l.004.037v1.898c0 .162-.224.294-.5.294-.255 0-.465-.112-.496-.257l-.004-.037v-1.898c0-.162.224-.293.5-.293zM53.887 19.208c.255 0 .466.112.496.257l.004.037v41.605c0 .162-.224.294-.5.294-.255 0-.465-.112-.496-.257l-.004-.037V19.502c0-.163.224-.294.5-.294z" transform="translate(45.864 22.396)"/>
                    <path d="M53.887 76.088c.255 0 .465.112.496.257l.004.037v2.467c0 .162-.224.293-.5.293-.255 0-.465-.111-.496-.256l-.004-.037v-2.467c0-.162.224-.294.5-.294zM53.887 66.643c.255 0 .465.112.496.256l.004.037v2.833c0 .162-.224.294-.5.294-.255 0-.465-.112-.496-.257l-.004-.037v-2.833c0-.162.224-.293.5-.293zM53.887 86.728c.255 0 .466.112.496.256l.004.037v2.785c0 .162-.224.293-.5.293-.255 0-.465-.111-.496-.256l-.004-.037v-2.785c0-.162.224-.293.5-.293zM63.42 50.13c.254 0 .464.111.495.256l.004.037v13.904c0 .162-.224.294-.5.294-.255 0-.465-.112-.496-.257l-.004-.037V50.423c0-.162.224-.293.5-.293zM63.397 71.343c.275 0 .498.133.498.297l-.006.406c0 .164-.223.297-.497.297-.275 0-.497-.133-.497-.297l.005-.406c0-.164.223-.297.497-.297zM63.342 87.242c.273.002.49.136.487.298l-.005.398-.003.48-.004.239c0 .162-.22.293-.494.293-.273 0-.494-.131-.494-.293l.01-1.04.002-.086c.004-.162.228-.291.5-.289zM63.367 79.108c.252 0 .46.112.49.256l.004.043-.011 1.388v.287c0 .162-.222.293-.495.293s-.494-.131-.494-.293l.01-1.549.001-.132c0-.162.222-.293.495-.293zM72.947 37.005c.255 0 .466.112.497.257l.003.037v31.6c0 .163-.223.294-.5.294-.254 0-.465-.112-.496-.256l-.004-.037V37.299c0-.162.224-.294.5-.294zM82.48 23.874c.254 0 .465.112.496.257l.004.036V76.23c0 .162-.224.293-.5.293-.255 0-.466-.112-.497-.256l-.003-.037V24.167c0-.162.223-.293.5-.293zM92.007 10.746c.255 0 .465.112.496.257l.004.037v69.538c0 .162-.224.293-.5.293-.255 0-.465-.111-.496-.256l-.004-.037V11.04c0-.162.224-.294.5-.294zM101.619-.163c.255 0 .465.112.496.257l.004.037v78.96c0 .162-.224.293-.5.293-.255 0-.466-.112-.496-.257l-.004-.036V.13c0-.162.224-.294.5-.294zM111.147.262c.255 0 .465.112.496.256l.004.037v75.886c0 .162-.224.293-.5.293-.255 0-.465-.112-.496-.257l-.004-.036V.555c0-.162.224-.293.5-.293zM120.679 1.394c.255 0 .465.112.496.256l.004.037v72.1c0 .161-.224.293-.5.293-.255 0-.465-.112-.496-.257l-.004-.037V1.687c0-.162.224-.293.5-.293zM130.207 32.312c.255 0 .466.112.497.256l.003.037V60.51c0 .162-.223.294-.5.294-.254 0-.465-.112-.496-.257l-.004-.037V32.605c0-.162.224-.293.5-.293z" transform="translate(45.864 22.396)"/>
                    <path d="M103.125 2.767c2.089-.007 4.585-.005 7.168.005l11.286.06h.215c.162 0 .293.2.293.445s-.131.444-.293.444l-10.11-.055-3.934-.012c-1.348-.003-2.639-.003-3.822 0l-3.236.014c-.744.005-1.367.013-1.858.023l-.707.02-.285.013-.134.01-.082.01-.02.008c-.06.021-.126.012-.185-.03l-.035-.028c-.126-.121-.17-.362-.11-.56l.02-.054c.084-.2.034-.26 1.357-.285l4.472-.028z" transform="translate(45.864 22.396)"/>
                </g>
                <circle cx="98.803" cy="124.455" r="1.73" fill="#000"/>
                <circle cx="95.074" cy="154.679" r="1.73" fill="#000"/>
                <circle cx="90.967" cy="185.683" r="1.73" fill="#000"/>
                <circle cx="86.318" cy="217.274" r="1.73" fill="#000"/>
                <path fill="#000" d="M11.357 68.623l.036.003 28.11 3.93c.16.023.271.171.249.332-.02.148-.149.254-.294.252l-.037-.003-28.109-3.93c-.16-.023-.272-.171-.25-.331.021-.149.149-.255.295-.253zM155.602 110.243c.15-.004.276.105.298.25l.003.036.894 36.477c.004.162-.124.297-.286.301-.15.004-.275-.105-.297-.25l-.003-.036-.895-36.478c-.004-.162.124-.296.286-.3z"/>
                <path fill="#93B4F6" d="M36.442 158.975c-3.075 2.018-5.587 3.399-7.378 4.09-2.861 1.104-5.902 1.668-8.969 1.663-3.12 0-4.97-.753-5.722-1.091-7.282-2.081-10.333-14.011-11.796-23.83 11.178 1.377 24.699 6.074 33.865 19.168zM223.847 118.963c-1.994 4.859-5.041 9.215-8.92 12.755-1.07.994-2.179 1.925-3.324 2.792-4.721-9.556-5.056-20.496-.535-29.603 3.537-7.126 9.149-11.326 13.272-13.632.08.373.156.746.229 1.115.079.425.158.846.234 1.263 1.38 7.72 2.768 16.086-.956 25.31z"/>
            </g>
        </g>
    </g>
</svg>
